<?xml version="1.0" encoding="UTF-8"?>
<svg width="192" height="192" viewBox="0 0 192 192" xmlns="http://www.w3.org/2000/svg">
  <defs>
    <linearGradient id="bg-gradient" x1="0%" y1="0%" x2="100%" y2="100%">
      <stop offset="0%" style="stop-color:#769656;stop-opacity:1" />
      <stop offset="100%" style="stop-color:#5a7a42;stop-opacity:1" />
    </linearGradient>
    <linearGradient id="knight-gradient" x1="0%" y1="0%" x2="100%" y2="100%">
      <stop offset="0%" style="stop-color:#f0f0f0;stop-opacity:1" />
      <stop offset="100%" style="stop-color:#d0d0d0;stop-opacity:1" />
    </linearGradient>
  </defs>
  
  <!-- Background -->
  <rect width="192" height="192" fill="#312e2b" rx="28.799999999999997"/>
  
  <!-- Speech bubble -->
  <g>
    <!-- Main bubble -->
    <rect x="19.200000000000003" y="19.200000000000003" 
          width="153.6" height="115.19999999999999" 
          rx="23.04" 
          fill="url(#bg-gradient)" 
          stroke="#f0f0f0" 
          stroke-width="3.84"/>
    
    <!-- Speech tail -->
    <path d="M 57.6 134.39999999999998
             L 42.24 172.8
             L 80.64 134.39999999999998
             Z"
          fill="url(#bg-gradient)"
          stroke="#f0f0f0"
          stroke-width="3.84"
          stroke-linejoin="round"/>
  </g>
  
  <!-- Knight chess piece (simplified) -->
  <g transform="translate(49.92, 40.32)">
    <!-- Knight silhouette -->
    <path d="M 46.08 13.824
             L 59.903999999999996 23.04
             L 64.512 32.256
             L 69.12 41.472
             L 64.512 50.688
             L 69.12 59.903999999999996
             L 78.336 78.336
             L 13.824 78.336
             L 23.04 59.903999999999996
             L 27.648 50.688
             L 23.04 41.472
             L 27.648 32.256
             L 32.256 23.04
             Z"
          fill="url(#knight-gradient)"
          stroke="#312e2b"
          stroke-width="2.88"/>
    
    <!-- Knight eye -->
    <circle cx="50.688" cy="32.256" 
            r="3.6864" 
            fill="#312e2b"/>
    
    <!-- Base -->
    <rect x="9.216" y="78.336" 
          width="73.728" height="9.216" 
          rx="1.8432"
          fill="url(#knight-gradient)"
          stroke="#312e2b"
          stroke-width="2.88"/>
  </g>
</svg>