<?xml version="1.0" encoding="UTF-8"?>
<svg width="72" height="72" viewBox="0 0 72 72" xmlns="http://www.w3.org/2000/svg">
  <defs>
    <linearGradient id="bg-gradient" x1="0%" y1="0%" x2="100%" y2="100%">
      <stop offset="0%" style="stop-color:#769656;stop-opacity:1" />
      <stop offset="100%" style="stop-color:#5a7a42;stop-opacity:1" />
    </linearGradient>
    <linearGradient id="knight-gradient" x1="0%" y1="0%" x2="100%" y2="100%">
      <stop offset="0%" style="stop-color:#f0f0f0;stop-opacity:1" />
      <stop offset="100%" style="stop-color:#d0d0d0;stop-opacity:1" />
    </linearGradient>
  </defs>
  
  <!-- Background -->
  <rect width="72" height="72" fill="#312e2b" rx="10.799999999999999"/>
  
  <!-- Speech bubble -->
  <g>
    <!-- Main bubble -->
    <rect x="7.2" y="7.2" 
          width="57.6" height="43.2" 
          rx="8.64" 
          fill="url(#bg-gradient)" 
          stroke="#f0f0f0" 
          stroke-width="1.44"/>
    
    <!-- Speech tail -->
    <path d="M 21.6 50.400000000000006
             L 15.84 64.8
             L 30.240000000000002 50.400000000000006
             Z"
          fill="url(#bg-gradient)"
          stroke="#f0f0f0"
          stroke-width="1.44"
          stroke-linejoin="round"/>
  </g>
  
  <!-- Knight chess piece (simplified) -->
  <g transform="translate(18.72, 15.12)">
    <!-- Knight silhouette -->
    <path d="M 17.28 5.184
             L 22.464000000000002 8.64
             L 24.192 12.096
             L 25.92 15.552000000000001
             L 24.192 19.008000000000003
             L 25.92 22.464000000000002
             L 29.376 29.376
             L 5.184 29.376
             L 8.64 22.464000000000002
             L 10.368 19.008000000000003
             L 8.64 15.552000000000001
             L 10.368 12.096
             L 12.096 8.64
             Z"
          fill="url(#knight-gradient)"
          stroke="#312e2b"
          stroke-width="1.08"/>
    
    <!-- Knight eye -->
    <circle cx="19.008000000000003" cy="12.096" 
            r="1.3824" 
            fill="#312e2b"/>
    
    <!-- Base -->
    <rect x="3.4560000000000004" y="29.376" 
          width="27.648000000000003" height="3.4560000000000004" 
          rx="0.6912"
          fill="url(#knight-gradient)"
          stroke="#312e2b"
          stroke-width="1.08"/>
  </g>
</svg>