<?xml version="1.0" encoding="UTF-8"?>
<svg width="384" height="384" viewBox="0 0 384 384" xmlns="http://www.w3.org/2000/svg">
  <defs>
    <linearGradient id="bg-gradient" x1="0%" y1="0%" x2="100%" y2="100%">
      <stop offset="0%" style="stop-color:#769656;stop-opacity:1" />
      <stop offset="100%" style="stop-color:#5a7a42;stop-opacity:1" />
    </linearGradient>
    <linearGradient id="knight-gradient" x1="0%" y1="0%" x2="100%" y2="100%">
      <stop offset="0%" style="stop-color:#f0f0f0;stop-opacity:1" />
      <stop offset="100%" style="stop-color:#d0d0d0;stop-opacity:1" />
    </linearGradient>
  </defs>
  
  <!-- Background -->
  <rect width="384" height="384" fill="#312e2b" rx="57.599999999999994"/>
  
  <!-- Speech bubble -->
  <g>
    <!-- Main bubble -->
    <rect x="38.400000000000006" y="38.400000000000006" 
          width="307.2" height="230.39999999999998" 
          rx="46.08" 
          fill="url(#bg-gradient)" 
          stroke="#f0f0f0" 
          stroke-width="7.68"/>
    
    <!-- Speech tail -->
    <path d="M 115.2 268.79999999999995
             L 84.48 345.6
             L 161.28 268.79999999999995
             Z"
          fill="url(#bg-gradient)"
          stroke="#f0f0f0"
          stroke-width="7.68"
          stroke-linejoin="round"/>
  </g>
  
  <!-- Knight chess piece (simplified) -->
  <g transform="translate(99.84, 80.64)">
    <!-- Knight silhouette -->
    <path d="M 92.16 27.648
             L 119.80799999999999 46.08
             L 129.024 64.512
             L 138.24 82.944
             L 129.024 101.376
             L 138.24 119.80799999999999
             L 156.672 156.672
             L 27.648 156.672
             L 46.08 119.80799999999999
             L 55.296 101.376
             L 46.08 82.944
             L 55.296 64.512
             L 64.512 46.08
             Z"
          fill="url(#knight-gradient)"
          stroke="#312e2b"
          stroke-width="5.76"/>
    
    <!-- Knight eye -->
    <circle cx="101.376" cy="64.512" 
            r="7.3728" 
            fill="#312e2b"/>
    
    <!-- Base -->
    <rect x="18.432" y="156.672" 
          width="147.456" height="18.432" 
          rx="3.6864"
          fill="url(#knight-gradient)"
          stroke="#312e2b"
          stroke-width="5.76"/>
  </g>
</svg>