<?xml version="1.0" encoding="UTF-8"?>
<svg width="96" height="96" viewBox="0 0 96 96" xmlns="http://www.w3.org/2000/svg">
  <defs>
    <linearGradient id="bg-gradient" x1="0%" y1="0%" x2="100%" y2="100%">
      <stop offset="0%" style="stop-color:#769656;stop-opacity:1" />
      <stop offset="100%" style="stop-color:#5a7a42;stop-opacity:1" />
    </linearGradient>
    <linearGradient id="knight-gradient" x1="0%" y1="0%" x2="100%" y2="100%">
      <stop offset="0%" style="stop-color:#f0f0f0;stop-opacity:1" />
      <stop offset="100%" style="stop-color:#d0d0d0;stop-opacity:1" />
    </linearGradient>
  </defs>
  
  <!-- Background -->
  <rect width="96" height="96" fill="#312e2b" rx="14.399999999999999"/>
  
  <!-- Speech bubble -->
  <g>
    <!-- Main bubble -->
    <rect x="9.600000000000001" y="9.600000000000001" 
          width="76.8" height="57.599999999999994" 
          rx="11.52" 
          fill="url(#bg-gradient)" 
          stroke="#f0f0f0" 
          stroke-width="1.92"/>
    
    <!-- Speech tail -->
    <path d="M 28.8 67.19999999999999
             L 21.12 86.4
             L 40.32 67.19999999999999
             Z"
          fill="url(#bg-gradient)"
          stroke="#f0f0f0"
          stroke-width="1.92"
          stroke-linejoin="round"/>
  </g>
  
  <!-- Knight chess piece (simplified) -->
  <g transform="translate(24.96, 20.16)">
    <!-- Knight silhouette -->
    <path d="M 23.04 6.912
             L 29.951999999999998 11.52
             L 32.256 16.128
             L 34.56 20.736
             L 32.256 25.344
             L 34.56 29.951999999999998
             L 39.168 39.168
             L 6.912 39.168
             L 11.52 29.951999999999998
             L 13.824 25.344
             L 11.52 20.736
             L 13.824 16.128
             L 16.128 11.52
             Z"
          fill="url(#knight-gradient)"
          stroke="#312e2b"
          stroke-width="1.44"/>
    
    <!-- Knight eye -->
    <circle cx="25.344" cy="16.128" 
            r="1.8432" 
            fill="#312e2b"/>
    
    <!-- Base -->
    <rect x="4.608" y="39.168" 
          width="36.864" height="4.608" 
          rx="0.9216"
          fill="url(#knight-gradient)"
          stroke="#312e2b"
          stroke-width="1.44"/>
  </g>
</svg>