<?xml version="1.0" encoding="UTF-8"?>
<svg width="144" height="144" viewBox="0 0 144 144" xmlns="http://www.w3.org/2000/svg">
  <defs>
    <linearGradient id="bg-gradient" x1="0%" y1="0%" x2="100%" y2="100%">
      <stop offset="0%" style="stop-color:#769656;stop-opacity:1" />
      <stop offset="100%" style="stop-color:#5a7a42;stop-opacity:1" />
    </linearGradient>
    <linearGradient id="knight-gradient" x1="0%" y1="0%" x2="100%" y2="100%">
      <stop offset="0%" style="stop-color:#f0f0f0;stop-opacity:1" />
      <stop offset="100%" style="stop-color:#d0d0d0;stop-opacity:1" />
    </linearGradient>
  </defs>
  
  <!-- Background -->
  <rect width="144" height="144" fill="#312e2b" rx="21.599999999999998"/>
  
  <!-- Speech bubble -->
  <g>
    <!-- Main bubble -->
    <rect x="14.4" y="14.4" 
          width="115.2" height="86.4" 
          rx="17.28" 
          fill="url(#bg-gradient)" 
          stroke="#f0f0f0" 
          stroke-width="2.88"/>
    
    <!-- Speech tail -->
    <path d="M 43.2 100.80000000000001
             L 31.68 129.6
             L 60.480000000000004 100.80000000000001
             Z"
          fill="url(#bg-gradient)"
          stroke="#f0f0f0"
          stroke-width="2.88"
          stroke-linejoin="round"/>
  </g>
  
  <!-- Knight chess piece (simplified) -->
  <g transform="translate(37.44, 30.24)">
    <!-- Knight silhouette -->
    <path d="M 34.56 10.368
             L 44.928000000000004 17.28
             L 48.384 24.192
             L 51.84 31.104000000000003
             L 48.384 38.016000000000005
             L 51.84 44.928000000000004
             L 58.752 58.752
             L 10.368 58.752
             L 17.28 44.928000000000004
             L 20.736 38.016000000000005
             L 17.28 31.104000000000003
             L 20.736 24.192
             L 24.192 17.28
             Z"
          fill="url(#knight-gradient)"
          stroke="#312e2b"
          stroke-width="2.16"/>
    
    <!-- Knight eye -->
    <circle cx="38.016000000000005" cy="24.192" 
            r="2.7648" 
            fill="#312e2b"/>
    
    <!-- Base -->
    <rect x="6.912000000000001" y="58.752" 
          width="55.29600000000001" height="6.912000000000001" 
          rx="1.3824"
          fill="url(#knight-gradient)"
          stroke="#312e2b"
          stroke-width="2.16"/>
  </g>
</svg>