<?xml version="1.0" encoding="UTF-8"?>
<svg width="128" height="128" viewBox="0 0 128 128" xmlns="http://www.w3.org/2000/svg">
  <defs>
    <linearGradient id="bg-gradient" x1="0%" y1="0%" x2="100%" y2="100%">
      <stop offset="0%" style="stop-color:#769656;stop-opacity:1" />
      <stop offset="100%" style="stop-color:#5a7a42;stop-opacity:1" />
    </linearGradient>
    <linearGradient id="knight-gradient" x1="0%" y1="0%" x2="100%" y2="100%">
      <stop offset="0%" style="stop-color:#f0f0f0;stop-opacity:1" />
      <stop offset="100%" style="stop-color:#d0d0d0;stop-opacity:1" />
    </linearGradient>
  </defs>
  
  <!-- Background -->
  <rect width="128" height="128" fill="#312e2b" rx="19.2"/>
  
  <!-- Speech bubble -->
  <g>
    <!-- Main bubble -->
    <rect x="12.8" y="12.8" 
          width="102.4" height="76.80000000000001" 
          rx="15.36" 
          fill="url(#bg-gradient)" 
          stroke="#f0f0f0" 
          stroke-width="2.56"/>
    
    <!-- Speech tail -->
    <path d="M 38.400000000000006 89.60000000000001
             L 28.16 115.2
             L 53.760000000000005 89.60000000000001
             Z"
          fill="url(#bg-gradient)"
          stroke="#f0f0f0"
          stroke-width="2.56"
          stroke-linejoin="round"/>
  </g>
  
  <!-- Knight chess piece (simplified) -->
  <g transform="translate(33.28, 26.880000000000003)">
    <!-- Knight silhouette -->
    <path d="M 30.72 9.216
             L 39.936 15.36
             L 43.007999999999996 21.503999999999998
             L 46.08 27.648
             L 43.007999999999996 33.792
             L 46.08 39.936
             L 52.224 52.224
             L 9.216 52.224
             L 15.36 39.936
             L 18.432 33.792
             L 15.36 27.648
             L 18.432 21.503999999999998
             L 21.503999999999998 15.36
             Z"
          fill="url(#knight-gradient)"
          stroke="#312e2b"
          stroke-width="1.92"/>
    
    <!-- Knight eye -->
    <circle cx="33.792" cy="21.503999999999998" 
            r="2.4576" 
            fill="#312e2b"/>
    
    <!-- Base -->
    <rect x="6.144" y="52.224" 
          width="49.152" height="6.144" 
          rx="1.2288"
          fill="url(#knight-gradient)"
          stroke="#312e2b"
          stroke-width="1.92"/>
  </g>
</svg>